<svg role="img" viewBox="0 0 15 15" xmlns="http://www.w3.org/2000/svg" id="Leetcode--Streamline-Simple-Icons" height="15" width="15">
  <desc>
    Leetcode Streamline Icon: https://streamlinehq.com
  </desc>
  <title>LeetCode</title>
  <path d="M8.426875 0a0.8587500000000001 0.8587500000000001 0 0 0 -0.600625 0.27375L4.4475 3.89125l-2.40875 2.5787500000000003a3.29125 3.29125 0 0 0 -0.755625 1.315 3.34375 3.34375 0 0 0 -0.078125 0.320625 3.454375 3.454375 0 0 0 0.03875 1.47625 3.64375 3.64375 0 0 0 0.21812499999999999 0.6356249999999999 3.7112499999999997 3.7112499999999997 0 0 0 0.7943749999999999 1.13625l2.673125 2.6206249999999995 0.024375 0.02375c1.4050000000000002 1.353125 3.6575 1.333125 5.039375000000001 -0.04625l1.4975 -1.4949999999999999c0.3375 -0.3375 0.3375 -0.8837499999999999 0.001875 -1.221875a0.86125 0.86125 0 0 0 -1.219375 -0.001875l-1.4975 1.4949999999999999a1.888125 1.888125 0 0 1 -2.628125 0.02375l-0.0125 -0.011875 -2.6725 -2.6206249999999995c-0.40750000000000003 -0.4 -0.6074999999999999 -0.9181250000000001 -0.5925 -1.414375a1.675 1.675 0 0 1 0.04125 -0.326875 1.590625 1.590625 0 0 1 0.38687499999999997 -0.7274999999999999L5.706250000000001 5.071250000000001c0.66125 -0.70875 2.0025 -0.79375 2.76875 -0.17375000000000002l2.188125 1.769375c0.370625 0.3 0.9131250000000001 0.241875 1.2125 -0.129375a0.865 0.865 0 0 0 -0.129375 -1.214375l-2.1875 -1.769375c-0.5 -0.40437500000000004 -1.10375 -0.653125 -1.7337500000000001 -0.75125l1.2593750000000001 -1.34875A0.865 0.865 0 0 0 8.426875 0zm-1.79125 8.009375a0.8624999999999999 0.8624999999999999 0 0 0 -0.8624999999999999 0.8637499999999999 0.8624999999999999 0.8624999999999999 0 0 0 0.8624999999999999 0.8637499999999999H12.993749999999999a0.8624999999999999 0.8624999999999999 0 0 0 0.8624999999999999 -0.8637499999999999 0.8624999999999999 0.8624999999999999 0 0 0 -0.8624999999999999 -0.8637499999999999z" fill="#000000" stroke-width="0.625"></path>
</svg>
